<?xml version="1.0" encoding="UTF-8" standalone="no"?>
<svg xmlns="http://www.w3.org/2000/svg" viewBox="0 0 48 48">
  <style>
    @media (prefers-color-scheme: dark) {
        .bg { fill: black; }
        .fg { fill: white; }
    }
    @media (prefers-color-scheme: light) {
        .bg { fill: white; }
        .fg { fill: black; }
    }
  </style>
  <rect width="100%" height="100%" class="bg"/>
  <path d="M22,31 22,40 25,40 24,40 23,39 23,32 Z" class="fg"/>
  <path d="M15,22 14,23 14,26 13,27 13,29 14,28 15,28 17,30 16,31 15,31 15,32 16,33 16,39 15,40 18,40 17,39 17,33 18,32 18,31 17,30 17,28 16,27 16,23 Z" class="fg"/>
  <path d="M30,7 29,8 29,21 31,23 31,30 30,31 29,31 29,40 33,40 31,40 30,39 30,37 31,36 33,36 32,35 31,35 30,34 30,33 31,32 33,32 33,30 34,29 32,29 31,28 31,27 32,26 34,26 33,26 31,24 32,23 34,23 34,22 32,22 31,21 31,14 32,13 33,14 33,16 35,16 35,13 36,12 37,13 37,22 36,23 36,29 37,29 37,28 38,27 39,28 39,29 40,30 39,31 37,31 36,32 36,35 37,36 38,36 40,38 38,40 36,40 40,40 40,36 39,35 38,35 37,34 37,33 38,32 40,32 40,28 39,27 40,26 40,23 38,21 38,7 36,7 36,8 35,9 35,11 34,12 33,11 33,9 32,8 32,7 Z" class="fg"/>
  <path d="M21,7 21,10 20,11 20,14 19,15 19,18 18,19 18,21 19,22 19,29 19,28 20,27 22,29 22,23 21,22 20,22 19,21 20,20 20,19 21,18 24,18 25,19 25,30 27,30 28,29 28,23 27,22 27,20 26,19 26,16 25,15 25,11 24,10 24,7 Z" class="fg"/>
  <path d="M9,7 8,8 8,9 7,10 7,11 8,12 8,13 9,14 11,14 13,16 13,19 12,20 8,20 8,22 7,23 7,29 8,30 7,31 7,40 8,40 8,37 9,36 11,36 11,35 9,35 8,34 8,33 9,32 11,32 11,31 10,31 9,30 10,29 11,29 11,23 10,22 11,21 13,21 14,20 14,14 13,13 10,13 9,12 9,10 11,8 14,8 14,7 Z" class="fg"/>
</svg>